<?xml version="1.0" encoding="UTF-8" ?>
<!DOCTYPE svg PUBLIC "-//W3C//DTD SVG 1.1//EN" "http://www.w3.org/Graphics/SVG/1.1/DTD/svg11.dtd">
<svg width="372pt" height="245pt" viewBox="0 0 372 245" version="1.1" xmlns="http://www.w3.org/2000/svg">
<g id="#ffffffff">
</g>
<g id="#ae3d2bff">
<path fill="#ae3d2b" opacity="1.00" d=" M 202.57 9.58 C 205.29 9.09 206.85 12.60 208.89 14.01 C 200.70 23.44 192.00 32.42 183.88 41.90 C 173.26 53.09 164.05 65.50 154.47 77.56 C 128.91 110.34 105.76 144.99 84.85 180.91 C 74.62 198.47 65.40 216.59 56.51 234.86 C 47.26 214.96 38.13 195.00 28.90 175.08 C 22.35 160.54 15.32 146.20 9.08 131.53 C 16.48 128.02 23.94 124.60 31.66 121.85 C 38.42 138.27 44.77 154.86 51.59 171.27 C 53.63 176.36 55.30 181.62 57.97 186.45 C 63.75 175.31 68.69 163.75 74.91 152.84 C 82.03 139.53 89.69 126.50 97.64 113.66 C 106.04 100.52 115.22 87.90 124.34 75.26 C 133.29 63.66 142.50 52.25 151.97 41.07 C 153.38 42.33 154.78 43.59 156.18 44.86 C 160.04 40.79 163.31 36.21 167.02 32.01 C 168.71 32.73 170.38 33.48 172.07 34.22 C 176.69 29.98 180.34 24.84 184.76 20.40 C 186.47 21.44 188.19 22.48 189.91 23.51 C 194.29 19.02 198.14 14.02 202.57 9.58 Z" />
</g>
<g id="#190059ff">
<path fill="#190059" opacity="1.00" d=" M 236.60 95.21 C 240.92 95.14 245.24 95.14 249.56 95.21 C 247.78 103.96 246.00 112.71 244.31 121.48 C 252.31 121.49 260.30 121.47 268.30 121.49 C 267.84 126.36 267.17 131.21 266.63 136.08 C 258.30 136.19 249.98 136.05 241.65 136.17 C 238.82 151.40 235.22 166.47 232.43 181.71 C 231.79 184.43 233.20 187.22 234.99 189.19 C 238.51 191.92 243.26 190.33 246.99 188.92 C 250.74 187.62 253.70 184.93 256.48 182.21 C 258.23 186.07 259.94 189.96 261.57 193.88 C 255.32 198.82 248.74 203.66 241.01 205.95 C 233.71 208.21 225.83 210.65 218.21 208.55 C 210.35 206.23 203.47 198.58 204.64 189.98 C 208.26 172.10 211.16 154.07 214.63 136.15 C 210.12 136.11 205.62 136.09 201.11 136.12 C 201.49 131.24 202.23 126.40 202.68 121.53 C 207.87 121.59 213.29 121.39 218.05 119.07 C 227.08 113.88 233.01 104.78 236.60 95.21 Z" />
<path fill="#190059" opacity="1.00" d=" M 156.35 121.13 C 168.52 119.38 181.19 123.58 190.40 131.60 C 197.28 137.62 200.38 146.74 201.33 155.61 C 202.58 163.02 199.91 170.31 196.97 176.99 C 192.46 186.50 184.90 194.26 176.52 200.46 C 165.14 207.44 151.28 211.01 138.00 208.61 C 127.57 207.68 117.05 202.81 111.32 193.73 C 104.24 181.94 103.45 166.67 109.14 154.16 C 112.51 147.55 116.51 141.06 122.37 136.36 C 131.44 127.41 143.77 122.37 156.35 121.13 M 152.45 135.53 C 146.57 137.94 142.69 143.38 139.70 148.75 C 135.66 156.94 132.84 165.82 132.24 174.98 C 131.31 179.66 132.12 184.59 134.08 188.90 C 137.73 194.20 144.76 195.68 150.81 194.80 C 157.98 192.76 163.09 186.64 166.06 180.04 C 169.75 171.89 172.64 163.05 172.05 153.99 C 171.74 149.69 172.34 145.01 169.90 141.20 C 166.07 135.91 158.71 132.93 152.45 135.53 Z" />
<path fill="#190059" opacity="1.00" d=" M 302.72 122.68 C 310.50 119.95 318.89 120.54 326.93 121.57 C 335.39 123.03 343.18 127.76 348.44 134.53 C 350.98 139.38 351.92 145.36 349.34 150.41 C 346.11 159.70 336.75 164.55 328.25 168.13 C 315.46 171.96 301.94 171.91 288.74 171.05 C 288.85 178.11 291.28 185.48 297.04 189.91 C 304.59 194.54 314.29 193.93 322.04 190.11 C 327.36 188.20 331.53 184.16 334.73 179.62 C 338.45 182.68 342.13 185.77 345.78 188.90 C 342.46 192.52 339.40 196.56 335.12 199.13 C 329.22 203.17 322.24 205.09 315.48 207.17 C 304.96 209.27 293.46 209.96 283.46 205.41 C 272.90 201.04 264.49 191.83 261.42 180.79 C 260.76 174.41 260.68 167.78 262.74 161.62 C 267.12 142.39 283.81 127.23 302.72 122.68 M 309.48 136.43 C 300.21 141.55 292.72 150.39 290.55 160.91 C 301.86 160.55 313.50 158.33 323.13 152.09 C 328.51 148.31 329.52 138.23 323.01 135.06 C 318.68 133.08 313.51 134.22 309.48 136.43 Z" />
</g>
</svg>
